<svg width="16" height="16" viewBox="0 0 16 16" fill="none" xmlns="http://www.w3.org/2000/svg">
<path d="M12.5 4.25H13.25M0.5 7.25L1.0925 9.188C1.1863 9.49524 1.37626 9.76424 1.63441 9.95543C1.89256 10.1466 2.20526 10.2499 2.5265 10.25H3.5M15.5 7.25L14.9075 9.188C14.8137 9.49524 14.6237 9.76424 14.3656 9.95543C14.1074 10.1466 13.7947 10.2499 13.4735 10.25H12.5M6.125 9.875C6.125 9.875 6.125 15.125 3.5 15.125M9.875 9.875C9.875 9.875 9.875 15.125 12.5 15.125M8 9.875V15.125M15.5 1.7V7.25H0.5V1.7C0.5 1.58065 0.547411 1.46619 0.631802 1.3818C0.716193 1.29741 0.830653 1.25 0.95 1.25H15.05C15.1693 1.25 15.2838 1.29741 15.3682 1.3818C15.4526 1.46619 15.5 1.58065 15.5 1.7V1.7Z" stroke="white" stroke-linecap="round" stroke-linejoin="round"/>
</svg>
