<svg width="88" height="88" viewBox="0 0 88 88" fill="none" xmlns="http://www.w3.org/2000/svg">
<path d="M44 11C26.4 11 11 25.1533 11 44C11 51.7733 13.7133 58.9233 18.2233 64.57L11 71.83L16.17 77L23.3933 69.7767C29.2452 74.45 36.511 76.9969 44 77C52.4333 77 60.9033 73.7733 67.32 67.32C70.3934 64.2646 72.8311 60.6308 74.4926 56.6282C76.154 52.6257 77.0062 48.3337 77 44V11H44ZM69.6667 44C69.6667 50.8567 66.99 57.31 62.15 62.15C59.7713 64.5398 56.9426 66.4346 53.8273 67.7248C50.712 69.0149 47.3719 69.6749 44 69.6667C29.8467 69.6667 18.3333 58.1533 18.3333 44C18.3333 37.0333 21.0467 30.5067 26.0333 25.7033C30.8125 20.9682 37.2723 18.3184 44 18.3333H69.6667V44Z" fill="white"/>
<path d="M31.02 46.31L45.87 47.7766L36.9233 59.9866C36.52 60.5733 36.5566 61.38 37.07 61.8933C37.62 62.4433 38.5366 62.48 39.1233 61.93L58.0433 44.9533C59.2533 43.8533 58.5933 41.8366 56.9433 41.69L42.0933 40.2233L51.04 28.0133C51.4433 27.4266 51.4066 26.62 50.8933 26.1066C50.6217 25.8372 50.2565 25.683 49.874 25.6761C49.4914 25.6693 49.121 25.8104 48.84 26.07L29.92 43.0466C28.7466 44.1466 29.4066 46.1633 31.02 46.31Z" fill="white"/>
</svg>
