<svg width="4" height="9" viewBox="0 0 4 9" fill="none" xmlns="http://www.w3.org/2000/svg">
<path d="M1.00805 0.679489C1.02024 0.627657 1.04553 0.582154 1.08014 0.549797C1.11476 0.51744 1.15682 0.499968 1.20004 0.5H2.79994C2.83161 0.50003 2.86282 0.509462 2.89101 0.527521C2.91919 0.545579 2.94354 0.571746 2.96205 0.603869C2.98057 0.635992 2.99271 0.673151 2.99749 0.712288C3.00226 0.751424 2.99953 0.79142 2.98953 0.82898L2.27757 3.49982H3.79987C3.83733 3.49979 3.87403 3.5129 3.90581 3.53767C3.93759 3.56243 3.96317 3.59786 3.97964 3.63991C3.9961 3.68195 4.00279 3.72894 3.99894 3.7755C3.99509 3.82207 3.98086 3.86635 3.95786 3.9033L1.15804 8.40303C1.12936 8.44935 1.08858 8.48161 1.04281 8.49418C0.997044 8.50675 0.949199 8.49883 0.907626 8.4718C0.866053 8.44478 0.833391 8.40036 0.815342 8.34631C0.797292 8.29225 0.795 8.23199 0.808865 8.17604L1.52922 5.24972H0.200104C0.169012 5.24974 0.138344 5.2407 0.110536 5.22332C0.082727 5.20593 0.0585442 5.18068 0.0399076 5.14957C0.0212709 5.11846 0.00869394 5.08235 0.00317535 5.0441C-0.00234323 5.00585 -0.000651392 4.96652 0.00811659 4.92924L1.00805 0.679489Z" fill="white"/>
</svg>
