<svg width="13" height="22" viewBox="0 0 13 22" fill="none" xmlns="http://www.w3.org/2000/svg">
<path d="M3.27617 0.493596C3.31578 0.351056 3.39799 0.225925 3.51047 0.136942C3.62295 0.0479588 3.75967 -8.68762e-05 3.90013 1.17929e-07H9.0998C9.20273 8.27614e-05 9.30417 0.0260217 9.39577 0.0756815C9.48737 0.125341 9.56651 0.197302 9.62668 0.285639C9.68684 0.373977 9.72631 0.476165 9.74183 0.583791C9.75735 0.691417 9.74849 0.801404 9.71596 0.904696L7.40211 8.24951H12.3496C12.4713 8.24942 12.5906 8.28548 12.6939 8.35359C12.7972 8.4217 12.8803 8.51911 12.9338 8.63474C12.9873 8.75037 13.0091 8.87957 12.9966 9.00763C12.984 9.13568 12.9378 9.25745 12.8631 9.35907L3.76364 21.7333C3.67042 21.8607 3.53788 21.9494 3.38913 21.984C3.24039 22.0185 3.0849 21.9968 2.94978 21.9225C2.81467 21.8481 2.70852 21.726 2.64986 21.5773C2.5912 21.4287 2.58375 21.263 2.62881 21.1091L4.96996 13.0617H0.650339C0.54929 13.0618 0.449618 13.0369 0.35924 12.9891C0.268863 12.9413 0.190269 12.8719 0.1297 12.7863C0.0691306 12.7008 0.0282553 12.6015 0.0103199 12.4963C-0.00761551 12.3911 -0.00211702 12.2829 0.0263789 12.1804L3.27617 0.493596Z" fill="#1E1E20"/>
</svg>
