<svg width="43" height="43" viewBox="0 0 43 43" fill="none" xmlns="http://www.w3.org/2000/svg">
<path d="M20.5625 30.875C19.75 30.875 18.9613 30.7656 18.1962 30.5469C17.43 30.3281 16.7188 30 16.0625 29.5625L15.3125 30.3125C14.9375 30.6875 14.5 30.875 14 30.875C13.5 30.875 13.0625 30.6875 12.6875 30.3125C12.3125 29.9375 12.125 29.5 12.125 29C12.125 28.5 12.3125 28.0625 12.6875 27.6875L13.4375 26.9375C13 26.2812 12.6719 25.57 12.4531 24.8038C12.2344 24.0387 12.125 23.25 12.125 22.4375C12.125 20 12.9688 17.9844 14.6563 16.3906C16.3438 14.7969 18.3125 14 20.5625 14H29V22.4375C29 24.7812 28.18 26.7738 26.54 28.415C24.8988 30.055 22.9062 30.875 20.5625 30.875ZM20.5625 27.125C21.875 27.125 22.9844 26.6719 23.8906 25.7656C24.7969 24.8594 25.25 23.75 25.25 22.4375V17.75H20.5625C19.3125 17.75 18.2188 18.195 17.2812 19.085C16.3438 19.9762 15.875 21.0938 15.875 22.4375C15.875 22.75 15.9062 23.0469 15.9688 23.3281C16.0312 23.6094 16.1094 23.875 16.2031 24.125L20.1875 20.1875C20.5625 19.8125 21 19.625 21.5 19.625C22 19.625 22.4375 19.8125 22.8125 20.1875C23.1875 20.5625 23.375 21 23.375 21.5C23.375 22 23.1875 22.4375 22.8125 22.8125L18.875 26.7969C19.125 26.8906 19.3906 26.9688 19.6719 27.0312C19.9531 27.0938 20.25 27.125 20.5625 27.125ZM21.5 42.125L15.0312 37.0625L6.92188 36.0781L5.9375 27.9688L0.875 21.5L5.9375 15.0312L6.92188 6.92188L15.0312 5.9375L21.5 0.875L27.9688 5.9375L36.0781 6.92188L37.0625 15.0312L42.125 21.5L37.0625 27.9688L36.0781 36.0781L27.9688 37.0625L21.5 42.125ZM21.5 37.3438L26.4688 33.5L32.75 32.7031L33.5 26.4688L37.3438 21.5L33.5 16.5313L32.7031 10.2969L26.4688 9.5L21.5 5.65625L16.5313 9.5L10.25 10.2969L9.5 16.5313L5.65625 21.5L9.5 26.4688L10.2969 32.75L16.5313 33.5L21.5 37.3438Z" fill="white"/>
</svg>
