<svg width="15" height="18" viewBox="0 0 15 18" fill="none" xmlns="http://www.w3.org/2000/svg">
<path d="M6.2745 0.169284C6.36038 0.099086 6.46076 0.0488148 6.5684 0.022091C6.67604 -0.0046327 6.78827 -0.00714367 6.897 0.0147389L14.397 1.51517C14.567 1.54915 14.7199 1.64097 14.8298 1.775C14.9398 1.90904 14.9999 2.07702 15 2.25039V15.7498C14.9999 15.9232 14.9398 16.0912 14.8298 16.2252C14.7199 16.3592 14.567 16.451 14.397 16.485L6.897 17.9855C6.78823 18.0072 6.676 18.0045 6.56838 17.9777C6.46076 17.9508 6.36044 17.9004 6.27465 17.8301C6.18885 17.7598 6.11972 17.6713 6.07223 17.571C6.02474 17.4707 6.00007 17.3612 6 17.2502V0.749952M10.5 8.99934C10.5 8.80037 10.421 8.60955 10.2803 8.46886C10.1397 8.32817 9.94891 8.24913 9.75 8.24913C9.55109 8.24913 9.36032 8.32817 9.21967 8.46886C9.07902 8.60955 9 8.80037 9 8.99934C9 9.19831 9.07902 9.38913 9.21967 9.52983C9.36032 9.67052 9.55109 9.74956 9.75 9.74956C9.94891 9.74956 10.1397 9.67052 10.2803 9.52983C10.421 9.38913 10.5 9.19831 10.5 8.99934ZM4.5 1.50017H0.75C0.551088 1.50017 0.360322 1.57921 0.21967 1.7199C0.0790178 1.8606 0 2.05142 0 2.25039V15.7498C0 15.9488 0.0790178 16.1396 0.21967 16.2803C0.360322 16.421 0.551088 16.5 0.75 16.5H4.5V1.50017ZM6.2745 0.169284C6.18862 0.239708 6.11945 0.328328 6.07198 0.428746C6.02451 0.529164 5.99993 0.638873 6 0.749952L6.2745 0.169284Z" fill="#06DEDE"/>
</svg>
