<svg width="20" height="20" viewBox="0 0 20 20" fill="none" xmlns="http://www.w3.org/2000/svg">
<path d="M7.44398 11.8273C7.44423 11.5246 7.68429 11.2791 7.98015 11.2788L9.4665 11.2775L9.46778 9.76401C9.46804 9.46131 9.70809 9.21572 10.004 9.21545C10.2998 9.21519 10.5395 9.46036 10.5392 9.76305L10.5379 11.2765L12.0172 11.2752C12.3131 11.2749 12.5527 11.5201 12.5524 11.8228C12.5522 12.1255 12.3121 12.3711 12.0163 12.3714L10.537 12.3727L10.5357 13.8933C10.5354 14.196 10.2954 14.4416 9.99951 14.4419C9.70365 14.4421 9.46402 14.197 9.46427 13.8943L9.46556 12.3736L7.97922 12.3749C7.68336 12.3752 7.44372 12.13 7.44398 11.8273Z" fill="#06DEDE"/>
<path fill-rule="evenodd" clip-rule="evenodd" d="M10.5775 0.672895C10.2255 0.442368 9.77452 0.442368 9.42245 0.672895L0.493997 6.51905C-0.00439668 6.84539 -0.149847 7.52329 0.169125 8.03319C0.488097 8.5431 1.1507 8.6919 1.6491 8.36557L2.5001 7.80835V16.5769C2.5001 18.1913 3.77927 19.5 5.3572 19.5H14.6428C16.2207 19.5 17.4999 18.1913 17.4999 16.5769V7.80835L18.3509 8.36557C18.8493 8.6919 19.5119 8.5431 19.8309 8.03319C20.1498 7.52329 20.0044 6.84539 19.506 6.51905L10.5775 0.672895ZM13.9285 11.8269C13.9285 14.0467 12.1697 15.8462 10 15.8462C7.83034 15.8462 6.07148 14.0467 6.07148 11.8269C6.07148 9.60716 7.83034 7.80769 10 7.80769C12.1697 7.80769 13.9285 9.60716 13.9285 11.8269Z" fill="#06DEDE"/>
</svg>
