<svg width="20" height="19" viewBox="0 0 20 19" fill="none" xmlns="http://www.w3.org/2000/svg">
<path d="M7.44398 11.3273C7.44423 11.0246 7.68429 10.7791 7.98015 10.7788L9.4665 10.7775L9.46778 9.26401C9.46804 8.96131 9.70809 8.71572 10.004 8.71545C10.2998 8.71519 10.5395 8.96036 10.5392 9.26305L10.5379 10.7765L12.0172 10.7752C12.3131 10.7749 12.5527 11.0201 12.5524 11.3228C12.5522 11.6255 12.3121 11.8711 12.0163 11.8714L10.537 11.8727L10.5357 13.3933C10.5354 13.696 10.2954 13.9416 9.99951 13.9419C9.70365 13.9421 9.46402 13.697 9.46427 13.3943L9.46556 11.8736L7.97922 11.8749C7.68336 11.8752 7.44372 11.63 7.44398 11.3273Z" fill="white"/>
<path fill-rule="evenodd" clip-rule="evenodd" d="M10.5775 0.172895C10.2255 -0.0576316 9.77452 -0.0576316 9.42245 0.172895L0.493997 6.01905C-0.00439668 6.34539 -0.149847 7.02329 0.169125 7.53319C0.488097 8.0431 1.1507 8.1919 1.6491 7.86557L2.5001 7.30835V16.0769C2.5001 17.6913 3.77927 19 5.3572 19H14.6428C16.2207 19 17.4999 17.6913 17.4999 16.0769V7.30835L18.3509 7.86557C18.8493 8.1919 19.5119 8.0431 19.8309 7.53319C20.1498 7.02329 20.0044 6.34539 19.506 6.01905L10.5775 0.172895ZM13.9285 11.3269C13.9285 13.5467 12.1697 15.3462 10 15.3462C7.83034 15.3462 6.07148 13.5467 6.07148 11.3269C6.07148 9.10716 7.83034 7.30769 10 7.30769C12.1697 7.30769 13.9285 9.10716 13.9285 11.3269Z" fill="white"/>
</svg>
