<svg width="18" height="16" viewBox="0 0 18 16" fill="none" xmlns="http://www.w3.org/2000/svg">
<path d="M13.5 4.25H14.25M1.5 7.25L2.0925 9.188C2.1863 9.49524 2.37626 9.76424 2.63441 9.95543C2.89256 10.1466 3.20526 10.2499 3.5265 10.25H4.5M16.5 7.25L15.9075 9.188C15.8137 9.49524 15.6237 9.76424 15.3656 9.95543C15.1074 10.1466 14.7947 10.2499 14.4735 10.25H13.5M7.125 9.875C7.125 9.875 7.125 15.125 4.5 15.125M10.875 9.875C10.875 9.875 10.875 15.125 13.5 15.125M9 9.875V15.125M16.5 1.7V7.25H1.5V1.7C1.5 1.58065 1.54741 1.46619 1.6318 1.3818C1.71619 1.29741 1.83065 1.25 1.95 1.25H16.05C16.1693 1.25 16.2838 1.29741 16.3682 1.3818C16.4526 1.46619 16.5 1.58065 16.5 1.7V1.7Z" stroke="black" stroke-width="1.5" stroke-linecap="round" stroke-linejoin="round"/>
</svg>
