<svg width="5" height="9" viewBox="0 0 5 9" fill="none" xmlns="http://www.w3.org/2000/svg">
<path d="M2.5 0C2.12704 0 1.76936 0.148158 1.50563 0.411881C1.24191 0.675604 1.09375 1.03329 1.09375 1.40625V5.65313C0.822438 5.93003 0.638916 6.28088 0.566197 6.66167C0.493478 7.04246 0.5348 7.43624 0.684981 7.79364C0.835162 8.15104 1.08752 8.45615 1.4104 8.6707C1.73329 8.88526 2.11233 8.99971 2.5 8.99971C2.88767 8.99971 3.26671 8.88526 3.5896 8.6707C3.91249 8.45615 4.16484 8.15104 4.31502 7.79364C4.4652 7.43624 4.50652 7.04246 4.4338 6.66167C4.36109 6.28088 4.17756 5.93003 3.90625 5.65313V1.40625C3.90625 1.03329 3.75809 0.675604 3.49437 0.411881C3.23065 0.148158 2.87296 0 2.5 0V0ZM1.65625 1.40625C1.65625 1.18247 1.74515 0.967862 1.90338 0.809629C2.06161 0.651395 2.27622 0.5625 2.5 0.5625C2.72378 0.5625 2.93839 0.651395 3.09662 0.809629C3.25486 0.967862 3.34375 1.18247 3.34375 1.40625V5.89894L3.43769 5.98331C3.64999 6.17317 3.79964 6.42301 3.86684 6.69978C3.93403 6.97656 3.9156 7.26721 3.81398 7.53328C3.71237 7.79934 3.53236 8.02829 3.29778 8.1898C3.06319 8.35132 2.78509 8.4378 2.50028 8.4378C2.21547 8.4378 1.93737 8.35132 1.70279 8.1898C1.46821 8.02829 1.28819 7.79934 1.18658 7.53328C1.08496 7.26721 1.06653 6.97656 1.13373 6.69978C1.20092 6.42301 1.35057 6.17317 1.56288 5.98331L1.65625 5.89894V1.40625Z" fill="white"/>
</svg>
