<svg width="26" height="26" viewBox="0 0 26 26" fill="none" xmlns="http://www.w3.org/2000/svg">
<path opacity="0.5" d="M12.4583 18.4167C11.9888 18.4167 11.5331 18.3535 11.0911 18.2271C10.6484 18.1007 10.2374 17.9111 9.85825 17.6583L9.42492 18.0917C9.20825 18.3083 8.95547 18.4167 8.66658 18.4167C8.3777 18.4167 8.12492 18.3083 7.90825 18.0917C7.69159 17.875 7.58325 17.6222 7.58325 17.3333C7.58325 17.0444 7.69159 16.7917 7.90825 16.575L8.34158 16.1417C8.08881 15.7625 7.89922 15.3516 7.77283 14.9088C7.64645 14.4668 7.58325 14.0111 7.58325 13.5417C7.58325 12.1333 8.07075 10.9688 9.04575 10.0479C10.0208 9.12708 11.1583 8.66667 12.4583 8.66667H17.3333V13.5417C17.3333 14.8958 16.8595 16.0471 15.9119 16.9953C14.9636 17.9429 13.8124 18.4167 12.4583 18.4167ZM12.4583 16.25C13.2166 16.25 13.8576 15.9882 14.3812 15.4646C14.9048 14.941 15.1666 14.3 15.1666 13.5417V10.8333H12.4583C11.736 10.8333 11.1041 11.0904 10.5624 11.6047C10.0208 12.1196 9.74992 12.7653 9.74992 13.5417C9.74992 13.7222 9.76797 13.8938 9.80408 14.0563C9.8402 14.2188 9.88533 14.3722 9.9395 14.5167L12.2416 12.2417C12.4583 12.025 12.711 11.9167 12.9999 11.9167C13.2888 11.9167 13.5416 12.025 13.7583 12.2417C13.9749 12.4583 14.0833 12.7111 14.0833 13C14.0833 13.2889 13.9749 13.5417 13.7583 13.7583L11.4833 16.0604C11.6277 16.1146 11.7812 16.1597 11.9437 16.1958C12.1062 16.2319 12.2777 16.25 12.4583 16.25ZM12.9999 24.9167L9.26242 21.9917L4.577 21.4229L4.00825 16.7375L1.08325 13L4.00825 9.2625L4.577 4.57709L9.26242 4.00834L12.9999 1.08334L16.7374 4.00834L21.4228 4.57709L21.9916 9.2625L24.9166 13L21.9916 16.7375L21.4228 21.4229L16.7374 21.9917L12.9999 24.9167ZM12.9999 22.1542L15.8708 19.9333L19.4999 19.4729L19.9333 15.8708L22.1541 13L19.9333 10.1292L19.4728 6.52709L15.8708 6.06667L12.9999 3.84584L10.1291 6.06667L6.49992 6.52709L6.06658 10.1292L3.84575 13L6.06658 15.8708L6.527 19.5L10.1291 19.9333L12.9999 22.1542Z" fill="white"/>
</svg>
